<svg width="22" height="24" viewBox="0 0 22 24" fill="none" xmlns="http://www.w3.org/2000/svg">
<path d="M19.33 13.0967C19.3767 12.7467 19.4 12.385 19.4 12C19.4 11.6267 19.3767 11.2533 19.3184 10.9033L21.6867 9.05999C21.8967 8.89665 21.955 8.58165 21.8267 8.34832L19.5867 4.47499C19.4467 4.21832 19.155 4.13665 18.8984 4.21832L16.11 5.33832C15.5267 4.89499 14.9084 4.52165 14.22 4.24165L13.8 1.27832C13.7534 0.998321 13.52 0.799988 13.24 0.799988H8.76005C8.48005 0.799988 8.25838 0.998321 8.21171 1.27832L7.79171 4.24165C7.10338 4.52165 6.47338 4.90665 5.90171 5.33832L3.11338 4.21832C2.85671 4.12499 2.56505 4.21832 2.42505 4.47499L0.196713 8.34832C0.0567133 8.59332 0.10338 8.89665 0.336713 9.05999L2.70505 10.9033C2.64671 11.2533 2.60005 11.6383 2.60005 12C2.60005 12.3617 2.62338 12.7467 2.68171 13.0967L0.31338 14.94C0.10338 15.1033 0.0450466 15.4183 0.17338 15.6517L2.41338 19.525C2.55338 19.7817 2.84505 19.8633 3.10171 19.7817L5.89005 18.6617C6.47338 19.105 7.09171 19.4783 7.78005 19.7583L8.20005 22.7217C8.25838 23.0017 8.48005 23.2 8.76005 23.2H13.24C13.52 23.2 13.7534 23.0017 13.7884 22.7217L14.2084 19.7583C14.8967 19.4783 15.5267 19.105 16.0984 18.6617L18.8867 19.7817C19.1434 19.875 19.435 19.7817 19.575 19.525L21.815 15.6517C21.955 15.395 21.8967 15.1033 21.675 14.94L19.33 13.0967ZM11 16.2C8.69005 16.2 6.80005 14.31 6.80005 12C6.80005 9.68999 8.69005 7.79999 11 7.79999C13.31 7.79999 15.2 9.68999 15.2 12C15.2 14.31 13.31 16.2 11 16.2Z" fill="#E6E6E6"/>
</svg>
